<?xml version="1.0" encoding="UTF-8"?>
<svg xmlns="http://www.w3.org/2000/svg" viewBox="0 0 1800 1100" fill="none">
<defs>
<linearGradient id="b" x1="700" y1="0" x2="1800" y2="1100">
<stop offset="0" stop-color="#c5d7ed" stop-opacity=".04"/>
<stop offset=".55" stop-color="#146ab1" stop-opacity=".22"/>
<stop offset="1" stop-color="#146ab1" stop-opacity=".42"/>
</linearGradient>
<linearGradient id="g" x1="900" y1="300" x2="1700" y2="900">
<stop offset="0" stop-color="#deeb99" stop-opacity=".06"/>
<stop offset="1" stop-color="#adce00" stop-opacity=".30"/>
</linearGradient>
<radialGradient id="glow">
<stop offset="0" stop-color="#146ab1" stop-opacity=".25"/>
<stop offset=".65" stop-color="#146ab1" stop-opacity=".08"/>
<stop offset="1" stop-color="#146ab1" stop-opacity="0"/>
</radialGradient>
<filter id="blur"><feGaussianBlur stdDeviation="34"/></filter>
<filter id="nodeGlow"><feGaussianBlur stdDeviation="1.2" result="b"/><feMerge><feMergeNode in="b"/><feMergeNode in="SourceGraphic"/></feMerge></filter>
</defs>

<ellipse cx="1245" cy="555" rx="470" ry="260" fill="url(#glow)" filter="url(#blur)"/>

<g stroke="url(#b)" stroke-linecap="round" stroke-linejoin="round">
<path d="M720 120 C920 145 1040 190 1180 250 S1500 250 1740 170" stroke-width="2.8"/>
<path d="M690 235 C905 320 1085 355 1260 330 S1560 300 1760 415" stroke-width="2.4"/>
<path d="M730 385 C940 485 1110 525 1310 485 S1610 445 1765 565" stroke-width="2.0"/>
<path d="M730 715 C945 635 1115 620 1315 640 S1610 690 1765 560" stroke-width="2.0"/>
<path d="M690 865 C905 760 1085 715 1260 745 S1560 805 1760 690" stroke-width="2.4"/>
<path d="M720 985 C920 935 1040 865 1180 845 S1500 900 1740 810" stroke-width="2.8"/>
</g><g stroke="#146ab1" stroke-opacity=".10" stroke-width="1.1"><path d="M820 170 C1040 220 1290 220 1605 185"/><path d="M870 315 C1100 390 1360 392 1635 352"/><path d="M900 505 C1160 548 1410 548 1650 515"/><path d="M900 605 C1160 595 1410 600 1650 645"/><path d="M870 785 C1100 725 1360 725 1635 775"/><path d="M820 935 C1040 870 1290 875 1605 920"/></g><g stroke="url(#g)" stroke-width="1" stroke-dasharray="4 8"><path d="M960 205 C1180 250 1400 250 1630 225"/><path d="M980 550 C1210 548 1430 548 1650 560"/><path d="M960 845 C1180 790 1400 790 1630 825"/></g><g>
<g filter="url(#nodeGlow)">
  <polygon points="815.4,154.0 815.4,166.0 805.0,172.0 794.6,166.0 794.6,154.0 805.0,148.0" fill="white" stroke="#146ab1" stroke-width="2"/>
  <polygon points="812.8,155.5 812.8,164.5 805.0,169.0 797.2,164.5 797.2,155.5 805.0,151.0" fill="none" stroke="#146ab1" stroke-opacity=".35"/>
  <circle cx="805" cy="160" r="3" fill="#146ab1"/>
</g>
<g filter="url(#nodeGlow)">
  <polygon points="960.4,294.0 960.4,306.0 950.0,312.0 939.6,306.0 939.6,294.0 950.0,288.0" fill="white" stroke="#146ab1" stroke-width="2"/>
  <polygon points="957.8,295.5 957.8,304.5 950.0,309.0 942.2,304.5 942.2,295.5 950.0,291.0" fill="none" stroke="#146ab1" stroke-opacity=".35"/>
  <circle cx="950" cy="300" r="3" fill="#146ab1"/>
</g>
<g filter="url(#nodeGlow)">
  <polygon points="1120.4,464.0 1120.4,476.0 1110.0,482.0 1099.6,476.0 1099.6,464.0 1110.0,458.0" fill="white" stroke="#146ab1" stroke-width="2"/>
  <polygon points="1117.8,465.5 1117.8,474.5 1110.0,479.0 1102.2,474.5 1102.2,465.5 1110.0,461.0" fill="none" stroke="#146ab1" stroke-opacity=".35"/>
  <circle cx="1110" cy="470" r="3" fill="#146ab1"/>
</g>
<g filter="url(#nodeGlow)">
  <polygon points="1505.4,209.0 1505.4,221.0 1495.0,227.0 1484.6,221.0 1484.6,209.0 1495.0,203.0" fill="white" stroke="#146ab1" stroke-width="2"/>
  <polygon points="1502.8,210.5 1502.8,219.5 1495.0,224.0 1487.2,219.5 1487.2,210.5 1495.0,206.0" fill="none" stroke="#146ab1" stroke-opacity=".35"/>
  <circle cx="1495" cy="215" r="3" fill="#146ab1"/>
</g>
<g filter="url(#nodeGlow)">
  <polygon points="1695.4,414.0 1695.4,426.0 1685.0,432.0 1674.6,426.0 1674.6,414.0 1685.0,408.0" fill="white" stroke="#146ab1" stroke-width="2"/>
  <polygon points="1692.8,415.5 1692.8,424.5 1685.0,429.0 1677.2,424.5 1677.2,415.5 1685.0,411.0" fill="none" stroke="#146ab1" stroke-opacity=".35"/>
  <circle cx="1685" cy="420" r="3" fill="#146ab1"/>
</g>
<g filter="url(#nodeGlow)">
  <polygon points="1500.4,634.0 1500.4,646.0 1490.0,652.0 1479.6,646.0 1479.6,634.0 1490.0,628.0" fill="white" stroke="#146ab1" stroke-width="2"/>
  <polygon points="1497.8,635.5 1497.8,644.5 1490.0,649.0 1482.2,644.5 1482.2,635.5 1490.0,631.0" fill="none" stroke="#146ab1" stroke-opacity=".35"/>
  <circle cx="1490" cy="640" r="3" fill="#146ab1"/>
</g>
<g filter="url(#nodeGlow)">
  <polygon points="1670.4,829.0 1670.4,841.0 1660.0,847.0 1649.6,841.0 1649.6,829.0 1660.0,823.0" fill="white" stroke="#146ab1" stroke-width="2"/>
  <polygon points="1667.8,830.5 1667.8,839.5 1660.0,844.0 1652.2,839.5 1652.2,830.5 1660.0,826.0" fill="none" stroke="#146ab1" stroke-opacity=".35"/>
  <circle cx="1660" cy="835" r="3" fill="#146ab1"/>
</g>
<g filter="url(#nodeGlow)">
  <polygon points="1120.4,694.0 1120.4,706.0 1110.0,712.0 1099.6,706.0 1099.6,694.0 1110.0,688.0" fill="white" stroke="#146ab1" stroke-width="2"/>
  <polygon points="1117.8,695.5 1117.8,704.5 1110.0,709.0 1102.2,704.5 1102.2,695.5 1110.0,691.0" fill="none" stroke="#146ab1" stroke-opacity=".35"/>
  <circle cx="1110" cy="700" r="3" fill="#146ab1"/>
</g>
<g filter="url(#nodeGlow)">
  <polygon points="830.4,924.0 830.4,936.0 820.0,942.0 809.6,936.0 809.6,924.0 820.0,918.0" fill="white" stroke="#146ab1" stroke-width="2"/>
  <polygon points="827.8,925.5 827.8,934.5 820.0,939.0 812.2,934.5 812.2,925.5 820.0,921.0" fill="none" stroke="#146ab1" stroke-opacity=".35"/>
  <circle cx="820" cy="930" r="3" fill="#146ab1"/>
</g>
<g filter="url(#nodeGlow)">
  <polygon points="1396.3,478.5 1396.3,491.5 1385.0,498.0 1373.7,491.5 1373.7,478.5 1385.0,472.0" fill="white" stroke="#adce00" stroke-width="2"/>
  <polygon points="1393.7,480.0 1393.7,490.0 1385.0,495.0 1376.3,490.0 1376.3,480.0 1385.0,475.0" fill="none" stroke="#adce00" stroke-opacity=".35"/>
  <circle cx="1385" cy="485" r="3" fill="#adce00"/>
</g>
<g filter="url(#nodeGlow)">
  <polygon points="1396.3,718.5 1396.3,731.5 1385.0,738.0 1373.7,731.5 1373.7,718.5 1385.0,712.0" fill="white" stroke="#adce00" stroke-width="2"/>
  <polygon points="1393.7,720.0 1393.7,730.0 1385.0,735.0 1376.3,730.0 1376.3,720.0 1385.0,715.0" fill="none" stroke="#adce00" stroke-opacity=".35"/>
  <circle cx="1385" cy="725" r="3" fill="#adce00"/>
</g></g><g fill='white'><circle cx='1030' cy='215' r='2.5'/><circle cx='1135' cy='330' r='2.5'/><circle cx='1260' cy='350' r='2.5'/><circle cx='1415' cy='495' r='2.5'/><circle cx='1195' cy='548' r='2.5'/><circle cx='1500' cy='760' r='2.5'/><circle cx='1110' cy='820' r='2.5'/><circle cx='1350' cy='225' r='2.5'/><circle cx='1585' cy='560' r='2.5'/><circle cx='1515' cy='305' r='2.5'/><circle cx='1540' cy='690' r='2.5'/><circle cx='1260' cy='705' r='2.5'/><circle cx='1670' cy='420' r='2.5'/><circle cx='1490' cy='215' r='2.5'/></g></svg>